<svg xmlns:dc="http://purl.org/dc/elements/1.1/" xmlns:cc="http://creativecommons.org/ns#" xmlns:rdf="http://www.w3.org/1999/02/22-rdf-syntax-ns#" xmlns:svg="http://www.w3.org/2000/svg" xmlns="http://www.w3.org/2000/svg" xmlns:sodipodi="http://sodipodi.sourceforge.net/DTD/sodipodi-0.dtd" xmlns:inkscape="http://www.inkscape.org/namespaces/inkscape" version="1.1" x="0px" y="0px" viewBox="0 0 100 125"><g transform="translate(0,-952.36218)"><path d="m 25.555152,965.67472 c -4.25348,0.62226 -7.61158,2.00618 -10.06367,4.34375 -2.45209,2.33757 -3.85309,5.52648 -4.46927,9.3125 -0.19863,1.21088 0.96758,2.44358 2.18776,2.3125 l 14.81421,-1.53125 c -3.48941,17.43848 -7.43641,34.80548 -10.845,52.24998 -0.63188,3.8825 -0.0462,7.4142 1.93772,10 1.9839,2.5857 5.28431,4 9.15731,4 17.60272,-1.659 35.4223,-3.305 50.50585,-4.7188 6.56322,-1.3442 10.21994,-7.0009 10.21994,-13.5 4.1e-4,-1.0683 -0.99481,-2.0332 -2.06274,-2 l -13.00151,0.4375 10.97002,-45.93749 c 1.18023,-4.83452 1.88362,-10.06825 0.37505,-14.53125 -0.75429,-2.23149 -2.1562,-4.26495 -4.28175,-5.65625 -2.12555,-1.3913 -4.90118,-2.09375 -8.31346,-2.09375 -15.67853,2.33114 -31.43827,4.86158 -47.13046,7.31255 z m 47.19297,-3.3125 c 2.81374,0.01 4.74671,0.57578 6.0632,1.4375 1.32779,0.86912 2.12918,2.03358 2.65656,3.59375 1.05473,3.12034 0.62946,7.81368 -0.46881,12.3125 l -11.59509,48.50003 c -0.4063,2.1434 -0.33994,5.7753 0.56256,7.9687 0.34544,0.8068 0.82105,1.5325 1.40642,2.1875 l -43.16126,4 c -2.91971,-0.015 -4.76741,-0.9523 -5.90693,-2.4375 -1.14019,-1.486 -1.67518,-3.7626 -1.18764,-6.8437 4.05006,-18.0065 7.30443,-36.50313 10.81371,-51.93753 0.92671,-4.26201 2.78569,-8.82203 0.43755,-12.46875 13.46915,-2.03966 26.90574,-4.31355 40.37973,-6.3125 z" style="text-indent:0;text-transform:none;direction:ltr;block-progression:tb;baseline-shift:baseline;color:#000000;enable-background:accumulate;" fill="#000000" fill-opacity="1" stroke="none" marker="none" visibility="visible" display="inline" overflow="visible"/></g><text x="0" y="115" fill="#000000" font-size="5px" font-weight="bold" font-family="'Helvetica Neue', Helvetica, Arial-Unicode, Arial, Sans-serif">Created by AFY Studio</text><text x="0" y="120" fill="#000000" font-size="5px" font-weight="bold" font-family="'Helvetica Neue', Helvetica, Arial-Unicode, Arial, Sans-serif">from the Noun Project</text></svg>