<svg xmlns="http://www.w3.org/2000/svg" xmlns:xlink="http://www.w3.org/1999/xlink" version="1.1" x="0px" y="0px" viewBox="0 0 100 125" enable-background="new 0 0 100 100" xml:space="preserve"><path d="M89.678,43.586l0-6.555c-0.001-4.422-3.584-8.006-8.006-8.007c-1.94,0-3.718,0.691-5.103,1.838v-0.137  c0.015-0.083,0.026-0.167,0.026-0.254l0-6.555c-0.001-4.422-3.584-8.006-8.006-8.007c-1.94,0-3.718,0.691-5.103,1.838v-0.386  c-0.001-4.423-3.584-8.006-8.006-8.007c-4.423,0.001-8.006,3.584-8.007,8.007v0.346c-1.378-1.122-3.135-1.797-5.051-1.797  c-4.423,0.001-8.006,3.584-8.007,8.007v6.555c0,0.087,0.011,0.171,0.026,0.253v8.414v16.849L21.637,51.77l0,0  c-1.036-0.446-2.126-0.669-3.202-0.669c-2.584-0.001-5.099,1.239-6.655,3.473c-0.98,1.405-1.458,3.03-1.457,4.633  c-0.002,2.359,1.033,4.7,2.992,6.293l-0.001,0.001L35.891,84.25c0.002,0.001,0.004,0.002,0.005,0.003  c3.361,2.838,7.144,4.449,11.101,5.33c3.967,0.884,8.118,1.06,12.339,1.062c16.745-0.001,30.317-13.573,30.318-30.318V43.822  C89.667,43.745,89.678,43.667,89.678,43.586z M78.722,79.712c-4.966,4.963-11.81,8.029-19.386,8.03  c-4.139,0.001-8.085-0.182-11.706-0.992c-3.625-0.812-6.915-2.229-9.875-4.726c-0.002-0.001-0.003-0.002-0.005-0.003  c-0.002-0.001-0.003-0.003-0.004-0.005L15.168,63.268l-0.014-0.011c-1.267-1.026-1.928-2.524-1.93-4.049  c0.001-1.032,0.303-2.065,0.936-2.974c0.999-1.435,2.612-2.228,4.274-2.229c0.723,0,1.452,0.15,2.148,0.466l0.146,0.057  l14.708,4.846c0.025,0.008,0.051,0.01,0.076,0.017c0.049,0.013,0.098,0.025,0.149,0.033c0.051,0.008,0.101,0.013,0.151,0.015  c0.026,0.001,0.051,0.008,0.078,0.008c0.019,0,0.036-0.005,0.055-0.006c0.053-0.002,0.104-0.008,0.156-0.016  c0.045-0.007,0.089-0.013,0.133-0.024c0.046-0.011,0.09-0.026,0.134-0.042c0.045-0.016,0.09-0.032,0.133-0.052  c0.041-0.019,0.08-0.042,0.119-0.065c0.041-0.024,0.081-0.048,0.119-0.075c0.038-0.028,0.073-0.058,0.108-0.089  c0.034-0.03,0.068-0.06,0.099-0.093c0.032-0.034,0.061-0.071,0.09-0.109c0.029-0.038,0.057-0.075,0.083-0.116  c0.023-0.037,0.043-0.077,0.063-0.117c0.024-0.047,0.046-0.095,0.064-0.145c0.006-0.017,0.016-0.032,0.022-0.05  c0.008-0.025,0.01-0.05,0.017-0.075c0.013-0.05,0.025-0.099,0.033-0.151c0.008-0.05,0.012-0.1,0.015-0.15  c0.001-0.027,0.008-0.052,0.008-0.078l0-18.856v-8.67c0-0.087-0.011-0.171-0.026-0.253v-6.299c0.001-1.414,0.569-2.68,1.495-3.609  c0.928-0.926,2.195-1.494,3.609-1.495c1.414,0.001,2.681,0.569,3.609,1.495c0.81,0.812,1.321,1.891,1.443,3.093v0.516  c0,0.087,0.011,0.171,0.026,0.253v15.753c0,0.802,0.65,1.452,1.452,1.452c0.802,0,1.451-0.65,1.451-1.452v-9.187  c0.016-0.086,0.027-0.173,0.027-0.264l0-6.555c0-0.176-0.015-0.349-0.026-0.522v-5.983c0-0.052-0.01-0.101-0.015-0.151  c0.028-1.372,0.582-2.602,1.484-3.507c0.928-0.926,2.195-1.494,3.609-1.495c1.414,0.001,2.681,0.569,3.609,1.495  c0.926,0.928,1.494,2.195,1.495,3.609v6.555v6.555c0,0.09,0.011,0.177,0.026,0.263v13.524c0,0.802,0.65,1.452,1.452,1.452  c0.802,0,1.451-0.65,1.451-1.452v-20.34c0-0.045-0.009-0.088-0.013-0.132c0.035-1.36,0.585-2.579,1.482-3.478  c0.928-0.926,2.195-1.494,3.609-1.495c1.414,0.001,2.681,0.569,3.609,1.495c0.926,0.928,1.494,2.195,1.495,3.609v6.306  c-0.015,0.083-0.026,0.167-0.026,0.253v6.555v6.555v6.626c0,0.802,0.65,1.452,1.452,1.452c0.802,0,1.451-0.65,1.451-1.452v-6.625  c0,0,0-0.001,0-0.001h0v-6.555c0.001-1.414,0.569-2.68,1.495-3.609c0.928-0.926,2.195-1.494,3.609-1.495  c1.414,0.001,2.681,0.569,3.609,1.495c0.926,0.928,1.494,2.195,1.495,3.609v3.632c-0.013,0.077-0.024,0.154-0.024,0.234v19.43  C86.751,67.902,83.685,74.747,78.722,79.712z"/><text x="0" y="115" fill="#000000" font-size="5px" font-weight="bold" font-family="'Helvetica Neue', Helvetica, Arial-Unicode, Arial, Sans-serif">Created by Viktor Ostrovsky</text><text x="0" y="120" fill="#000000" font-size="5px" font-weight="bold" font-family="'Helvetica Neue', Helvetica, Arial-Unicode, Arial, Sans-serif">from the Noun Project</text></svg>