<svg xmlns="http://www.w3.org/2000/svg" xmlns:xlink="http://www.w3.org/1999/xlink" version="1.2" baseProfile="tiny" x="0px" y="0px" viewBox="0 0 100 125" xml:space="preserve"><path d="M83.75,7.5L76.25,5l-7.5,2.5L61.25,5l-7.5,2.5L46.25,5l-7.5,2.5L31.25,5h-3.321L5,27.929V95h67.071L95,72.071V5h-3.75  L83.75,7.5z M27.5,16.036v12.012L20,29.923l-5.11-1.277L27.5,16.036z M67.5,87.5h-55V33.202l7.5,1.875l10-2.5l10,2.5l10-2.5l10,2.5  l7.5-1.875V87.5z M68.722,27.743L60,29.923l-10-2.5l-10,2.5l-7.5-1.875V13.322l6.25,2.083l7.5-2.5l7.5,2.5l7.5-2.5l7.5,2.5l7.5-2.5  l5.482,1.827L68.722,27.743z M72.5,31.036l5-5v33.558l-5,15V31.036z M75.721,80.743l5.372-16.115L86.465,70L75.721,80.743z   M87.5,63.965l-5-5V21.035l5-5V63.965z"/><text x="0" y="115" fill="#000000" font-size="5px" font-weight="bold" font-family="'Helvetica Neue', Helvetica, Arial-Unicode, Arial, Sans-serif">Created by Arthur Shlain</text><text x="0" y="120" fill="#000000" font-size="5px" font-weight="bold" font-family="'Helvetica Neue', Helvetica, Arial-Unicode, Arial, Sans-serif">from the Noun Project</text></svg>