<svg xmlns="http://www.w3.org/2000/svg" xmlns:xlink="http://www.w3.org/1999/xlink" version="1.1" x="0px" y="0px" viewBox="0 0 100 125" enable-background="new 0 0 100 100" xml:space="preserve"><ellipse fill="#000000" cx="40.881" cy="52.809" rx="1.875" ry="2.812"/><ellipse fill="#000000" cx="59.631" cy="52.809" rx="1.875" ry="2.812"/><path fill="#000000" d="M55.881,58.434c-0.518,0-0.938,0.42-0.938,0.938c0,2.586-2.102,4.688-4.688,4.688s-4.688-2.102-4.688-4.688  c0-0.518-0.419-0.938-0.938-0.938s-0.938,0.42-0.938,0.938c0,3.618,2.944,6.562,6.562,6.562s6.562-2.944,6.562-6.562  C56.819,58.854,56.399,58.434,55.881,58.434z"/><path fill="#000000" d="M29.631,80.938c0.007,0,0.011-0.004,0.018-0.004h41.232c1.551,0,2.812-1.262,2.812-2.812V19.996  c0-0.121-0.026-0.243-0.071-0.358c-0.095-0.229-0.278-0.412-0.507-0.506c-0.23-0.095-0.487-0.095-0.718,0  c-0.113,0.048-0.218,0.115-0.306,0.202l-3.085,3.087l-3.087-3.087c-0.366-0.367-0.959-0.367-1.325,0l-3.087,3.087l-3.087-3.087  c-0.366-0.367-0.959-0.367-1.325,0l-3.087,3.087l-3.087-3.087c-0.366-0.367-0.959-0.367-1.325,0l-3.087,3.087l-3.087-3.087  c-0.366-0.367-0.959-0.367-1.325,0l-3.087,3.087l-3.087-3.087c-0.366-0.367-0.959-0.367-1.325,0l-3.087,3.087l-3.085-3.087  c-0.088-0.087-0.192-0.154-0.306-0.202c-0.23-0.095-0.487-0.095-0.718,0c-0.229,0.094-0.412,0.276-0.507,0.506  c-0.045,0.115-0.071,0.237-0.071,0.358v58.125c0,0,0,0,0,0.002s0,0.002,0,0.002C26.819,79.676,28.081,80.938,29.631,80.938z   M70.881,79.059h-41.25c-0.003,0-0.005,0.002-0.009,0.002c-0.513-0.006-0.928-0.423-0.928-0.936c0,0,0,0,0-0.002s0-0.002,0-0.002  V22.26l2.15,2.149c0.183,0.183,0.423,0.274,0.663,0.274s0.48-0.092,0.663-0.274l3.087-3.087l3.087,3.087  c0.183,0.183,0.423,0.274,0.663,0.274s0.48-0.092,0.663-0.274l3.087-3.087l3.087,3.087c0.183,0.183,0.423,0.274,0.663,0.274  s0.48-0.092,0.663-0.274l3.087-3.087l3.087,3.087c0.183,0.183,0.423,0.274,0.663,0.274s0.48-0.092,0.663-0.274l3.087-3.087  l3.087,3.087c0.183,0.183,0.423,0.274,0.663,0.274s0.48-0.092,0.663-0.274l3.087-3.087l3.087,3.087  c0.183,0.183,0.423,0.274,0.663,0.274s0.48-0.092,0.663-0.274l2.15-2.149v55.861C71.819,78.638,71.397,79.059,70.881,79.059z"/><text x="0" y="115" fill="#000000" font-size="5px" font-weight="bold" font-family="'Helvetica Neue', Helvetica, Arial-Unicode, Arial, Sans-serif">Created by Julien Deveaux</text><text x="0" y="120" fill="#000000" font-size="5px" font-weight="bold" font-family="'Helvetica Neue', Helvetica, Arial-Unicode, Arial, Sans-serif">from the Noun Project</text></svg>