<svg xmlns="http://www.w3.org/2000/svg" xmlns:xlink="http://www.w3.org/1999/xlink" version="1.1" x="0px" y="0px" viewBox="0 0 100 125" enable-background="new 0 0 100 100" xml:space="preserve"><ellipse fill="#000000" cx="40.881" cy="52.809" rx="1.875" ry="2.812"/><ellipse fill="#000000" cx="59.631" cy="52.809" rx="1.875" ry="2.812"/><circle fill="#000000" cx="50.256" cy="61.246" r="3.75"/><path fill="#000000" d="M29.631,80.938c0.008,0,0.012-0.004,0.019-0.004h41.231c1.552,0,2.812-1.262,2.812-2.812V19.996  c0-0.121-0.025-0.243-0.071-0.358c-0.095-0.229-0.278-0.412-0.507-0.506c-0.23-0.095-0.487-0.095-0.718,0  c-0.113,0.048-0.218,0.115-0.306,0.202l-3.086,3.087l-3.087-3.087c-0.366-0.367-0.959-0.367-1.325,0l-3.088,3.087l-3.087-3.087  c-0.366-0.367-0.959-0.367-1.325,0l-3.088,3.087l-3.087-3.087c-0.366-0.367-0.959-0.367-1.325,0l-3.088,3.087l-3.087-3.087  c-0.366-0.367-0.959-0.367-1.325,0l-3.088,3.087l-3.087-3.087c-0.366-0.367-0.959-0.367-1.325,0l-3.088,3.087l-3.085-3.087  c-0.088-0.087-0.192-0.154-0.306-0.202c-0.23-0.095-0.487-0.095-0.718,0c-0.229,0.094-0.412,0.276-0.507,0.506  c-0.046,0.115-0.072,0.237-0.072,0.358v58.125c0,0,0,0,0,0.002s0,0.002,0,0.002C26.818,79.676,28.08,80.938,29.631,80.938z   M70.881,79.059h-41.25c-0.003,0-0.005,0.002-0.009,0.002c-0.513-0.006-0.929-0.423-0.929-0.936c0,0,0,0,0-0.002s0-0.002,0-0.002  V22.26l2.15,2.149c0.183,0.183,0.423,0.274,0.662,0.274c0.24,0,0.48-0.092,0.663-0.274l3.087-3.087l3.088,3.087  c0.183,0.183,0.423,0.274,0.662,0.274c0.24,0,0.48-0.092,0.663-0.274l3.087-3.087l3.088,3.087c0.183,0.183,0.423,0.274,0.662,0.274  c0.24,0,0.48-0.092,0.663-0.274l3.087-3.087l3.088,3.087c0.183,0.183,0.423,0.274,0.662,0.274c0.24,0,0.48-0.092,0.663-0.274  l3.087-3.087l3.088,3.087c0.183,0.183,0.423,0.274,0.662,0.274c0.24,0,0.48-0.092,0.663-0.274l3.087-3.087l3.088,3.087  c0.183,0.183,0.423,0.274,0.662,0.274c0.24,0,0.48-0.092,0.663-0.274l2.149-2.149v55.861C71.818,78.638,71.397,79.059,70.881,79.059  z"/><text x="0" y="115" fill="#000000" font-size="5px" font-weight="bold" font-family="'Helvetica Neue', Helvetica, Arial-Unicode, Arial, Sans-serif">Created by Julien Deveaux</text><text x="0" y="120" fill="#000000" font-size="5px" font-weight="bold" font-family="'Helvetica Neue', Helvetica, Arial-Unicode, Arial, Sans-serif">from the Noun Project</text></svg>