<svg xmlns="http://www.w3.org/2000/svg" xmlns:xlink="http://www.w3.org/1999/xlink" version="1.1" x="0px" y="0px" viewBox="0 0 512 640" style="enable-background:new 0 0 512 512;" xml:space="preserve"><g><g><g><g><path d="M26.2,472.3c-4.9,0-9.4-2.6-11.9-6.8c-2.5-4.3-2.6-9.4-0.3-13.8l239.3-437c0.9-1.7,3-2.5,4.8-1.9c1.8,0.6,3,2.5,2.7,4.4      l-67,429.5c-0.3,1.7-1.7,3.1-3.4,3.3L28.1,472.2C27.5,472.3,26.8,472.3,26.2,472.3z M249.3,38.6L21,455.6c-1,1.9-1,4,0.1,5.9      c1.2,2.1,3.5,3.2,5.9,2.9l159.3-21.7L249.3,38.6z"/></g></g><g><g><path d="M485.6,472.2C485.6,472.2,485.6,472.2,485.6,472.2c-0.7,0-1.4,0-2-0.1l-153.9-22c-1.7-0.2-3.1-1.6-3.4-3.3L252.8,17.3      c-0.3-1.9,0.8-3.8,2.6-4.5c1.8-0.6,3.9,0.1,4.8,1.9l237.4,436.9c2.4,4.4,2.3,9.5-0.2,13.8C495,469.7,490.5,472.2,485.6,472.2z       M333.7,442.6l151,21.6c0.3,0,0.6,0.1,0.9,0.1h0c2.1,0,4-1.1,5-2.9c1.1-1.8,1.1-4,0.1-5.8L264.8,39.7L333.7,442.6z"/></g></g><g><g><path d="M256.8,499.7c-0.6,0-1.3-0.2-1.9-0.5c-1.3-0.7-2.1-2.1-2.1-3.5V16.6c0-2.1,1.6-3.8,3.7-4c2.1-0.2,3.9,1.3,4.3,3.3      l73.4,429.5c0.3,1.5-0.4,3.1-1.7,4L259,499C258.4,499.5,257.6,499.7,256.8,499.7z M260.8,63.7v424.4l65.1-43.9L260.8,63.7z"/></g></g><g><g><path d="M256.8,499.7c-0.8,0-1.7-0.3-2.4-0.8l-67-49.6c-1.2-0.9-1.8-2.4-1.6-3.8l67-429.5c0.3-2.1,2.2-3.5,4.3-3.4      c2.1,0.2,3.7,1.9,3.7,4v479.1c0,1.5-0.9,2.9-2.2,3.6C258,499.6,257.4,499.7,256.8,499.7z M194.1,444.3l58.7,43.4V68.2      L194.1,444.3z"/></g></g></g></g><text x="0" y="527" fill="#000000" font-size="5px" font-weight="bold" font-family="'Helvetica Neue', Helvetica, Arial-Unicode, Arial, Sans-serif">Created by ibrandify</text><text x="0" y="532" fill="#000000" font-size="5px" font-weight="bold" font-family="'Helvetica Neue', Helvetica, Arial-Unicode, Arial, Sans-serif">from the Noun Project</text></svg>