<svg xmlns="http://www.w3.org/2000/svg" viewBox="0 0 47.26 44.3125" x="0px" y="0px"><title>rock2</title><g data-name="Layer 2"><g data-name="Layer 1"><path d="M45.5,10.7c-1.7-.65-3.43-1.24-5.09-2-5.54-2.45-11-5-16.59-7.44C23,.91,22.1.57,21.22.27A3.72,3.72,0,0,0,17.3,1c-1.2,1-2.44,2-3.67,3A62,62,0,0,0,5,12.3C3.42,14.16,2,16.17.69,18.18a3.38,3.38,0,0,0,.25,4.39C2.11,24,3.19,25.44,4.47,26.72c2.08,2.07,4.29,4,6.44,6,.34.32.84.61.95,1,.42,1.52,1.59,1.77,2.84,1.71a41,41,0,0,0,6-.57A53,53,0,0,1,36.49,33.6c1.34.12,2-.77,2.59-1.77a91,91,0,0,0,8-18.15C47.59,12,47.18,11.33,45.5,10.7ZM17.6,3.12c-.34,1.72-.38,1.75-2.33,1.94Zm-7.1,6.3C12,9,13.47,8.62,15,8.24c.11,0,.25,0,.64.14-.45.39-.73.8-1.1.94-1.86.72-3.74,1.37-5.78,2.1A3.11,3.11,0,0,1,10.5,9.42ZM7.69,12.57c2.08-.48,4.18-.91,6.35-1.37.08.6-.31.86-.91,1-1.64.35-3.28.72-4.92,1.06-.49.11-1,.15-1.5.22l-.17-.34A5.8,5.8,0,0,1,7.69,12.57ZM6.6,14.73c1.79-.1,3.57-.43,5.36-.65a23.05,23.05,0,0,1-8.66,3.5C4.12,16,4.8,14.83,6.6,14.73ZM3.07,18.67a26,26,0,0,0,8.66-2.62A.8.8,0,0,1,12,16h0c.06,1.22,0,1.63-.68,1.86a5.16,5.16,0,0,1-.9.2,25.84,25.84,0,0,0-8,2.37,1.29,1.29,0,0,1-.4.06C1.86,19.26,2.09,18.78,3.07,18.67Zm.58,4.23-1.3-1.56,6.4-1.73.1.28ZM4.5,24a7,7,0,0,1,.86-.62c2-.92,3.93-1.91,6-2.72,1.83-.74,1.86-.65,3.23,1.09a22.51,22.51,0,0,1-6.1,2.21,4.43,4.43,0,0,0-2.71,1.23Zm1.94,1.84L15.89,23l.94,1a2.92,2.92,0,0,1-.6.33c-2.61.72-5.23,1.41-7.83,2.16A1.48,1.48,0,0,1,6.44,25.81Zm4.26,3.32c-.73.27-1,0-1.8-1.2,3.1-.82,6.17-1.64,9.25-2.43.14,0,.33.15.5.22l-.15.41C15.9,27.13,13.31,28.15,10.7,29.13Zm1.85,1.65a.78.78,0,0,1-1.15-.42l8.5-3.14,2,2.11-1.38.25c-.1-.12-.19-.19-.19-.25,0-.35,0-.69,0-1-.39,0-.86-.07-1.15.11a15,15,0,0,1-4.84,1.74A10.12,10.12,0,0,0,12.55,30.78Zm11.31.42c-3.1.48-6,2.25-9.3,1.51a26.15,26.15,0,0,1,6-1.56,2.88,2.88,0,0,0,2.36-1.09l1,.81ZM44.93,13.65a89.58,89.58,0,0,1-7.25,16.48c-.7,1.15-.67,1.08-2,1-2.13-.1-4.28-.08-6.42-.09-.55,0-1.1.08-1.78.14,0-1.18-.71-1.53-1.68-1.7a2.74,2.74,0,0,1-1.19-.7C23,27.4,21.38,26,19.84,24.53s-2.9-3-4.37-4.53c-.58-.59-.78-1.47-1.62-1.88-.21-.09-.24-.87-.12-1.26.44-1.37.95-2.73,1.5-4.06,1.08-2.62,2.22-5.22,3.31-7.84.39-.94.71-1.91,1.13-3.06a18.24,18.24,0,0,1,2.21.68C26,4.41,30.13,6.28,34.26,8.13l10.34,4.6a3.79,3.79,0,0,1,.45.3A4.89,4.89,0,0,1,44.93,13.65Z"/></g></g><text x="0" y="50.45" fill="#000000" font-size="5px" font-weight="bold" font-family="'Helvetica Neue', Helvetica, Arial-Unicode, Arial, Sans-serif">Created by Dong Ik Seo</text><text x="0" y="55.45" fill="#000000" font-size="5px" font-weight="bold" font-family="'Helvetica Neue', Helvetica, Arial-Unicode, Arial, Sans-serif">from the Noun Project</text></svg>