<svg xmlns="http://www.w3.org/2000/svg" xmlns:xlink="http://www.w3.org/1999/xlink" version="1.1" x="0px" y="0px" viewBox="0 0 100 125" enable-background="new 0 0 100 100" xml:space="preserve"><g><path d="M83.364,48.127L27.809,36.989L5.2,82.319L17.849,95h64.511L94.8,82.527L83.364,48.127z M87.16,77.707l-35.284-8.841   l-16.27-24.47l43.371,8.696L87.16,77.707z M29.75,45.936l16.385,24.645L19.405,88.446l-7.239-7.257L29.75,45.936z M79.982,89.271   H28.48L50.64,74.463l35.292,8.843L79.982,89.271z"/><rect x="6.491" y="17.665" transform="matrix(0.7079 0.7063 -0.7063 0.7079 18.5366 -3.7663)" width="14.663" height="5.73"/><rect x="26.53" y="5" width="5.729" height="16.425"/><rect x="42.096" y="13.196" transform="matrix(0.7071 0.7071 -0.7071 0.7071 27.6861 -25.7807)" width="5.729" height="14.662"/></g><text x="0" y="115" fill="#000000" font-size="5px" font-weight="bold" font-family="'Helvetica Neue', Helvetica, Arial-Unicode, Arial, Sans-serif">Created by Deivid Sáenz</text><text x="0" y="120" fill="#000000" font-size="5px" font-weight="bold" font-family="'Helvetica Neue', Helvetica, Arial-Unicode, Arial, Sans-serif">from the Noun Project</text></svg>