<svg xmlns="http://www.w3.org/2000/svg" data-name="Livello 1" viewBox="0 0 163 203.75" x="0px" y="0px"><title>Gestures</title><path d="M90.16,68.41a3,3,0,0,1-3-3V63.74a4.55,4.55,0,1,0-9.09,0,3,3,0,0,1-6,0,10.55,10.55,0,1,1,21.09,0v1.67A3,3,0,0,1,90.16,68.41Z"/><path d="M82.57,88.6A10.54,10.54,0,0,1,72.06,78V59.9a3,3,0,0,1,3-3h0a3,3,0,0,1,3,3V78a4.52,4.52,0,1,0,9,0,3,3,0,0,1,6,0A10.56,10.56,0,0,1,82.57,88.6Z"/><path d="M84.81,129.39H84a45.08,45.08,0,0,1-18.51-4.14,47.11,47.11,0,0,1-19.21-17L33.92,89.73c-1.28-1.59-4.71-6-1.81-11.66a10.57,10.57,0,0,1,14.21-4.52A3,3,0,0,1,47,74l9.93,9.21,0-46A10.55,10.55,0,0,1,67.5,26.72h0A10.53,10.53,0,0,1,78.05,37.28V63.71a3,3,0,0,1-3,3h0a3,3,0,0,1-3-3V37.27a4.53,4.53,0,0,0-4.53-4.55h0A4.55,4.55,0,0,0,63,37.25V44.8L62.91,90.08a3,3,0,0,1-5,2.2L43.24,78.72a4.55,4.55,0,0,0-5.81,2.1c-0.87,1.69-.56,3,1.24,5.24l0.16,0.22L51.29,105A41.12,41.12,0,0,0,68,119.79a39.18,39.18,0,0,0,16.1,3.59c10.67,0.18,20.82-3.43,27.12-9.62,3.94-3.87,6-8.4,6-13.08l0.11-58.53a4.55,4.55,0,1,0-9.09,0v0.71l0,24.52V77.82q0,0.14,0,.28v0.1A10.55,10.55,0,0,1,87.11,78l0-10.57A10.45,10.45,0,0,1,90.25,60,10.64,10.64,0,0,1,97.72,57a10.37,10.37,0,0,1,4.53,1l0-15.91a10.55,10.55,0,0,1,21.09.07l-0.11,58.54c0,6.32-2.72,12.32-7.83,17.35C108.18,125.18,96.78,129.39,84.81,129.39ZM97.7,63a4.53,4.53,0,0,0-4.54,4.53l0,10.57a4.55,4.55,0,0,0,9.09,0c0-.09,0-0.19,0-0.28V67.4A4.56,4.56,0,0,0,97.71,63h0Z"/><text x="0" y="178" fill="#000000" font-size="5px" font-weight="bold" font-family="'Helvetica Neue', Helvetica, Arial-Unicode, Arial, Sans-serif">Created by Xicons.co</text><text x="0" y="183" fill="#000000" font-size="5px" font-weight="bold" font-family="'Helvetica Neue', Helvetica, Arial-Unicode, Arial, Sans-serif">from the Noun Project</text></svg>