<svg xmlns="http://www.w3.org/2000/svg" xmlns:xlink="http://www.w3.org/1999/xlink" version="1.1" x="0px" y="0px" viewBox="0 0 100 125" style="enable-background:new 0 0 100 100;" xml:space="preserve"><style type="text/css">
	.st0{fill:none;stroke:#000000;stroke-width:2;stroke-linecap:round;stroke-linejoin:round;stroke-miterlimit:10;}
</style><path d="M37.482,53.571l-8.271,8.271c-4.979-0.517-9.728,1.542-12.775,5.582c-3.809,5.049-3.698,12.301,0.263,17.244  c2.565,3.201,6.215,5.087,10.277,5.311C27.234,89.993,27.492,90,27.75,90c3.734,0,7.34-1.484,9.993-4.137  c3.033-3.032,4.493-7.179,4.047-11.442l8.271-8.271l8.271,8.271c-0.446,4.264,1.014,8.409,4.047,11.442  c2.753,2.753,6.37,4.13,9.987,4.13s7.233-1.377,9.987-4.13c5.507-5.507,5.507-14.467,0-19.974  c-3.033-3.033-7.179-4.488-11.442-4.048l-8.272-8.271l19.055-19.056c3.171-3.171,4.917-7.387,4.917-11.871s-1.747-8.7-4.917-11.871  c-0.391-0.391-1.023-0.391-1.414,0l-30.22,30.219L19.842,10.773c-0.391-0.391-1.023-0.391-1.414,0  c-3.171,3.171-4.917,7.387-4.917,11.871s1.747,8.7,4.917,11.871L37.482,53.571z M69.841,63.601c0.222,0.222,0.536,0.328,0.845,0.283  c3.814-0.528,7.549,0.716,10.253,3.42c4.727,4.728,4.727,12.418,0,17.146c-4.726,4.726-12.417,4.728-17.146,0  c-2.704-2.704-3.95-6.441-3.419-10.253c0.043-0.311-0.062-0.623-0.283-0.845l-8.616-8.616l9.75-9.75L69.841,63.601z M80.964,12.918  c2.36,2.694,3.648,6.112,3.648,9.727c0,3.95-1.538,7.664-4.332,10.457l-40.249,40.25c-0.222,0.222-0.327,0.534-0.283,0.845  c0.53,3.812-0.716,7.549-3.42,10.253c-2.434,2.435-5.804,3.734-9.243,3.532c-3.487-0.191-6.621-1.812-8.826-4.563  c-3.398-4.24-3.494-10.46-0.227-14.789c2.351-3.118,5.878-4.865,9.671-4.865c0.572,0,1.151,0.039,1.732,0.12  c0.309,0.045,0.623-0.062,0.845-0.283L80.964,12.918z M19.158,12.918l29.489,29.489l-9.75,9.75L19.842,33.102  c-2.793-2.793-4.332-6.507-4.332-10.457C15.51,19.03,16.798,15.613,19.158,12.918z"/><path d="M72.455,84.279c2.175,0,4.351-0.828,6.006-2.484c3.312-3.312,3.312-8.701,0-12.014c-3.312-3.312-8.702-3.312-12.013,0  c-3.312,3.312-3.312,8.701,0,12.014C68.104,83.451,70.279,84.279,72.455,84.279z M67.862,71.195  c1.266-1.266,2.929-1.899,4.592-1.899c1.664,0,3.327,0.634,4.593,1.899c2.532,2.532,2.532,6.653,0,9.186  c-2.532,2.53-6.652,2.532-9.185,0C65.33,77.849,65.33,73.728,67.862,71.195z"/><path d="M22.125,69.781c-3.312,3.312-3.312,8.701,0,12.014c1.656,1.656,3.831,2.484,6.006,2.484s4.351-0.828,6.007-2.484  c3.312-3.312,3.312-8.701,0-12.014S25.437,66.469,22.125,69.781z M32.724,71.195c2.532,2.532,2.532,6.653,0,9.186  c-2.533,2.53-6.652,2.532-9.185,0c-2.532-2.532-2.532-6.653,0-9.186c1.266-1.266,2.929-1.899,4.592-1.899  S31.458,69.93,32.724,71.195z"/><path d="M50.125,57.25c2.208,0,4.005-1.797,4.005-4.005s-1.796-4.005-4.005-4.005s-4.005,1.797-4.005,4.005  S47.917,57.25,50.125,57.25z M50.125,51.24c1.105,0,2.005,0.899,2.005,2.005s-0.899,2.005-2.005,2.005s-2.005-0.899-2.005-2.005  S49.02,51.24,50.125,51.24z"/><text x="0" y="115" fill="#000000" font-size="5px" font-weight="bold" font-family="'Helvetica Neue', Helvetica, Arial-Unicode, Arial, Sans-serif">Created by Made</text><text x="0" y="120" fill="#000000" font-size="5px" font-weight="bold" font-family="'Helvetica Neue', Helvetica, Arial-Unicode, Arial, Sans-serif">from the Noun Project</text></svg>