<svg xmlns="http://www.w3.org/2000/svg" xmlns:xlink="http://www.w3.org/1999/xlink" version="1.1" x="0px" y="0px" viewBox="0 0 100 125" style="enable-background:new 0 0 100 100;" xml:space="preserve"><path d="M58.9,50.3c0-0.1,0.1-0.2,0.1-0.3c0.1-0.1,0.2-0.1,0.3-0.2c9.3-9.9,28.1-24.9,18.3-40.3c-4.9-7.7-11.5-9.2-19.6-5  c-4,2-5.7,4.8-6.8,9.1c-1.7,6.9-2.8,13.9-4,20.9c-1.5-7-2.7-14-4.6-20.9c-1.3-4.7-3.5-7.4-8-9.2c-8.5-3.4-14.9-0.5-19.1,7.6  c-4.3,8.3,0.9,18.1,6,24.8c4.7,6.3,10.7,11,16.3,16.3c0.1,0.1,0.3,0.2,0.6,0.2c0,0.1,0.1,0.2,0.2,0.3c-2.1,6.7-4.1,13.5-6,20.2  c-1.1,3.7-2.1,7.4-3.2,11.1c-0.6,2.1-2.2,5.4-0.5,7.3c2.5,2.8,7.4-0.2,9.3-2.3c4.4-4.9,7.4-11.6,9.7-17.8c1.7,3,3.3,6.1,4.9,9.1  c1.4,2.6,2.8,5.1,4.4,7.7c0.5,0.9,1.5,3.3,2.4,3.7c0.9,0.4,2.4,0.1,3.2-0.4c4.1-2.8,0.6-14.5,0.1-18.5  C61.7,65.8,60.8,57.9,58.9,50.3z M52.1,21.2c1.1-6,1.3-12.9,7.6-15.9c5.2-2.5,9.6-2.3,13.5,2c3,3.3,4.7,6.9,4.5,11.4  c-0.5,12.5-10.4,20.3-18.5,28.5c0-0.2,0-0.3,0-0.5c-0.2-1.8-0.8-3.5-1.7-5c5.3-3.5,9.4-8.5,12.2-14.2c1.9-3.9,3.9-11.3-2-12.9  c-9.4-2.6-14,15-15.6,22.5c-0.9-0.4-1.9-0.7-3-0.9C50.1,31.3,51.1,26.2,52.1,21.2z M56.9,41c-0.8-1.1-1.8-2-3-2.7  c0.9-4.5,7.1-27.5,13.9-21.6C74.9,22.8,62.9,36.3,56.9,41z M46.6,37.8c10.1-0.2,15.1,15.4,4.6,19.1c-5.3,1.9-9.2-0.9-11-4.9  c0,0,0,0,0,0c-2.4-5.4-1-13,6-14.2C46.3,37.8,46.4,37.8,46.6,37.8z M37.3,49.5c-8.6-7.9-18.4-16-20.6-28c-0.8-4.3-0.2-7.9,2.3-11.6  c1.7-2.4,3.5-4.6,6.4-5.3c2.7-0.7,5.3,0.1,7.8,1.1c6.4,2.6,7.1,8.4,8.4,14.4c1.2,5.4,2.4,10.9,3.6,16.3c-1,0.3-1.9,0.6-2.7,1.1  c-2.2-7-7.3-25.8-16.8-21c-11.5,5.7,6,23.3,11.8,26.7c0.1,0.1,0.2,0.1,0.4,0.1C37.1,45.2,37,47.4,37.3,49.5z M38.4,41.8  c-3.7-2.3-6.7-5.4-9.3-9c-2.3-3.3-6.4-9.1-4.5-13.3c3.5-7.9,9.9,3.7,11.2,6.6c1.9,4.1,3.3,8.5,4.7,12.8C39.7,39.8,39,40.7,38.4,41.8  z M47.1,70.7c-0.1,0.3-0.2,0.6-0.4,1c-0.8-0.3-1.5-0.7-2.3-1c-0.3-0.1-0.7,0-0.9,0.1c-0.2,0.1-0.4,0.4-0.1,0.5c1,0.4,2,0.9,3,1.3  c-0.2,0.6-0.5,1.3-0.8,1.9c-0.7-0.3-1.4-0.5-2.1-0.8c-0.5-0.2-1.5,0.5-0.8,0.8c0.8,0.3,1.6,0.6,2.5,0.9c-0.2,0.4-0.4,0.9-0.6,1.3  c-0.8-0.3-1.6-0.6-2.4-0.9c-0.3-0.1-0.7-0.1-0.9,0.1c-0.2,0.1-0.4,0.4-0.1,0.5c1,0.4,2,0.7,3,1.1c-0.2,0.4-0.4,0.9-0.6,1.3  c-0.9-0.3-1.8-0.5-2.7-0.8c-0.5-0.1-1.5,0.6-0.8,0.8c1,0.3,2,0.6,3.1,0.9c-0.3,0.5-0.6,1.1-0.8,1.6c-0.8-0.3-1.5-0.5-2.3-0.8  c-0.3-0.1-0.7,0-0.9,0.2C39,81,38.7,81.2,39,81.3c1,0.3,2,0.7,3,1c-0.4,0.7-0.7,1.3-1.1,2c-0.8-0.3-1.6-0.6-2.5-1  c-0.3-0.1-0.7,0-0.9,0.1c-0.2,0.1-0.4,0.4-0.1,0.5c1,0.4,2,0.8,3,1.2c-0.3,0.4-0.5,0.9-0.8,1.3c-0.1,0.1-0.2,0.3-0.4,0.5  c-0.6-0.3-1.1-0.6-1.7-0.9c-0.2-0.1-0.6,0-0.8,0.1c-0.1,0-0.6,0.3-0.4,0.4c0.8,0.4,1.5,0.8,2.3,1.2c-0.3,0.3-0.6,0.7-0.9,1.1  c-0.6-0.3-1.1-0.6-1.7-0.9c-0.3-0.1-0.7-0.1-0.9,0.1c-0.2,0.1-0.4,0.4-0.1,0.6c0.6,0.3,1.3,0.7,1.9,1c-2.7,2.8-6.5,5.4-7.4,0.8  c-0.4-2,1.2-5.5,1.7-7.5c2.6-9.4,5.4-18.7,8.3-28c1.1,4.5,3.4,8.3,5.8,12.3C45.9,68.5,46.5,69.6,47.1,70.7  C47.1,70.7,47.1,70.7,47.1,70.7z M61.3,90.6c-2.4,0.1-3-2.4-4.2-4.4c-2.1-3.6-4-7.2-6-10.9c-0.9-1.6-1.8-3.2-2.7-4.8c0,0,0,0,0,0  c0-0.1,0-0.1-0.1-0.2c-2.6-4.3-5.3-8.7-6.9-13.4c2.1,1.7,4.8,2.6,8.3,2.1c3.8-0.5,6.8-3.1,8.4-6.4c2.5,10.6,3.8,21.8,4.9,32.7  C63.2,87.5,64.2,90.5,61.3,90.6z M53.1,49.5c0.6-0.2,1.1-0.7,1.2-1.3c0.1-0.3,0.1-0.6,0-0.9c0.3-0.1,0.6-0.2,0.9-0.3  c0.4-0.1,0-0.3-0.2-0.2c-0.3,0.1-0.5,0.2-0.8,0.3c0-0.1-0.1-0.1-0.1-0.2c0.2-0.1,0.3-0.3,0.5-0.4c0.2-0.2-0.3-0.3-0.5-0.1  c-0.1,0.1-0.2,0.2-0.3,0.3c0,0-0.1-0.1-0.1-0.1c0.1-0.2,0.3-0.4,0.4-0.6c0.2-0.2-0.4-0.2-0.5,0c-0.1,0.1-0.2,0.2-0.3,0.4  c-0.1,0-0.1,0-0.2,0c-0.3-0.1-0.8-0.1-1,0c-0.6,0.2-1.1,0.6-1.3,1.2C50.3,48.8,51.8,49.9,53.1,49.5z M53,46.7  C53,46.7,53,46.7,53,46.7c0.4,0.6-0.4,0.6-0.7,0.5c-0.2-0.1-0.3-0.3-0.4-0.5c0,0,0,0,0,0c0,0,0,0,0,0C52.3,46.5,52.8,46.4,53,46.7z   M51.8,48.9c0.4-0.4,1-0.2,1.4,0.1c0,0,0.1,0,0.1,0C52.9,49.3,52.2,49.3,51.8,48.9C51.8,48.9,51.8,48.9,51.8,48.9z M41.7,46.2  c0.2,0.2,0.4,0.4,0.5,0.7c0,0-0.1,0.1-0.1,0.1c-0.1-0.1-0.3-0.3-0.4-0.4c-0.2-0.2-0.7,0.1-0.4,0.3c0.2,0.2,0.4,0.4,0.6,0.6  c0,0,0,0.1,0,0.1c-0.2-0.1-0.5-0.2-0.7-0.3c-0.2-0.1-0.6,0.2-0.3,0.3c0.3,0.1,0.7,0.2,1,0.3c0,0.1,0,0.3,0.1,0.4  c0.2,0.6,0.6,1.1,1.2,1.3c1.3,0.4,2.8-0.7,2.3-2.1c-0.2-0.6-0.7-1-1.3-1.2c-0.3-0.1-0.7-0.1-1,0c-0.1,0-0.3-0.1-0.4,0  c0,0-0.1,0.1-0.1,0.1c-0.1-0.2-0.3-0.3-0.4-0.5C42.1,45.8,41.5,46,41.7,46.2z M43.2,46.9c0.2-0.3,0.7-0.2,1.1,0c0,0,0,0,0,0  c0,0,0,0,0,0c-0.1,0.2-0.2,0.4-0.4,0.5C43.6,47.5,42.8,47.4,43.2,46.9z M43,49.2c0.4-0.3,1-0.5,1.4-0.1c0,0,0,0,0,0  c-0.5,0.4-1.1,0.4-1.6,0.1C42.9,49.2,43,49.2,43,49.2z M46.8,50.6c-0.1-0.2,0.3-0.4,0.5-0.2c0.7,0,1.3-0.1,2-0.1c0.1,0,0.1,0,0.2,0  c0,0,0.2,0,0.2,0c0.1,0,0.1,0,0.1,0.1c0,0,0,0,0,0.1c-0.4,0.6-0.7,1.2-1,1.9c0,0,0,0,0,0c0.1,0.4,0.1,0.9,0.2,1.3  c0,0.2-0.5,0.4-0.5,0.1c-0.1-0.5-0.1-0.9-0.2-1.4c0,0,0,0,0,0C47.6,51.7,47.2,51.1,46.8,50.6z"/><text x="0" y="115" fill="#000000" font-size="5px" font-weight="bold" font-family="'Helvetica Neue', Helvetica, Arial-Unicode, Arial, Sans-serif">Created by Gamze Genc Celik</text><text x="0" y="120" fill="#000000" font-size="5px" font-weight="bold" font-family="'Helvetica Neue', Helvetica, Arial-Unicode, Arial, Sans-serif">from the Noun Project</text></svg>