<svg xmlns="http://www.w3.org/2000/svg" xmlns:xlink="http://www.w3.org/1999/xlink" version="1.1" x="0px" y="0px" viewBox="0 0 100 125" enable-background="new 0 0 100 100" xml:space="preserve"><path d="M49.973,61.229V72.47h22.424V61.229H49.973z M16.25,94.952h11.241V83.711H16.25V94.952z M5.009,72.47v11.241H16.25V72.47  H5.009z M16.25,61.229V72.47h11.241v11.241h11.241V61.229H16.25z M49.973,38.759H38.732v-22.47H27.491V27.53H16.25v11.258h22.482  v22.44h11.241V38.759z M49.973,27.302v11.241h22.424V27.302H49.973z M72.397,16.061v11.241h22.595V16.061H72.397z M72.397,72.47  v11.241h22.595V72.47H72.397z M5.009,16.289V27.53H16.25V16.289H5.009z M27.491,5.048H16.25v11.241h11.241V5.048z"/><text x="0" y="115" fill="#000000" font-size="5px" font-weight="bold" font-family="'Helvetica Neue', Helvetica, Arial-Unicode, Arial, Sans-serif">Created by Tikhon Reztcov</text><text x="0" y="120" fill="#000000" font-size="5px" font-weight="bold" font-family="'Helvetica Neue', Helvetica, Arial-Unicode, Arial, Sans-serif">from the Noun Project</text></svg>