<svg xmlns="http://www.w3.org/2000/svg" xmlns:xlink="http://www.w3.org/1999/xlink" xml:space="preserve" version="1.1" style="shape-rendering:geometricPrecision;text-rendering:geometricPrecision;image-rendering:optimizeQuality;" viewBox="0 0 0.461 0.57625" x="0px" y="0px" fill-rule="evenodd" clip-rule="evenodd"><defs><style type="text/css">
   
    .fil0 {fill:black;fill-rule:nonzero}
   
  </style></defs><g><path class="fil0" d="M0.129 0.439c-0.015,0.015 -0.034,0.022 -0.053,0.022 -0.02,0 -0.039,-0.007 -0.054,-0.022 -0.015,-0.015 -0.022,-0.034 -0.022,-0.053 0,-0.02 0.007,-0.039 0.022,-0.054 0.015,-0.015 0.034,-0.022 0.054,-0.022 0.016,0 0.032,0.005 0.045,0.015l0.053 -0.053c-0.049,-0.054 -0.093,-0.109 -0.125,-0.156 -0.029,-0.042 -0.047,-0.078 -0.049,-0.104 0,-0.003 0.001,-0.006 0.003,-0.009 0.004,-0.004 0.011,-0.004 0.015,0l0.213 0.212 0.212 -0.212c0.004,-0.004 0.011,-0.004 0.015,0 0.003,0.003 0.004,0.006 0.003,0.009 -0.002,0.034 -0.034,0.088 -0.081,0.149 -0.027,0.035 -0.059,0.073 -0.092,0.111l0.052 0.053c0.014,-0.01 0.03,-0.015 0.046,-0.015 0.019,0 0.038,0.007 0.053,0.022 0.015,0.015 0.022,0.034 0.022,0.054 0,0.019 -0.007,0.038 -0.022,0.053 -0.015,0.015 -0.034,0.022 -0.053,0.022 -0.02,0 -0.039,-0.007 -0.054,-0.022l-0.036 -0.036 0 0 0 0c-0.011,-0.011 -0.023,-0.024 -0.037,-0.038 -0.01,-0.01 -0.019,-0.021 -0.028,-0.03 -0.023,0.024 -0.045,0.047 -0.066,0.068l0 0 0 0 -0.036 0.036zm0.249 -0.061c-0.002,0.002 -0.003,0.005 -0.003,0.008 0,0.002 0.001,0.005 0.003,0.007 0.002,0.002 0.005,0.003 0.008,0.003 0.002,0 0.005,-0.001 0.007,-0.003l0 0c0.002,-0.002 0.003,-0.005 0.003,-0.007 0,-0.003 -0.001,-0.006 -0.003,-0.008 -0.002,-0.002 -0.005,-0.003 -0.007,-0.003 -0.003,0 -0.006,0.001 -0.008,0.003zm-0.025 0.008c0,-0.009 0.003,-0.017 0.01,-0.023l0 0c0.006,-0.007 0.014,-0.01 0.023,-0.01 0.008,0 0.016,0.003 0.022,0.01 0.007,0.006 0.01,0.014 0.01,0.023 0,0.008 -0.003,0.016 -0.01,0.022l0 0c-0.006,0.007 -0.014,0.01 -0.022,0.01 -0.009,0 -0.017,-0.003 -0.023,-0.01 -0.007,-0.006 -0.01,-0.014 -0.01,-0.022zm-0.164 -0.129l0.026 -0.026 -0.181 -0.182c0.008,0.016 0.019,0.035 0.033,0.055 0.031,0.046 0.074,0.1 0.122,0.153zm0.084 0.031c-0.009,0.011 -0.018,0.021 -0.028,0.031 0.011,0.011 0.021,0.022 0.03,0.031 0.011,0.012 0.024,0.025 0.036,0.038l0 0 0.036 0.036c0.011,0.01 0.025,0.016 0.039,0.016 0.013,0 0.027,-0.006 0.038,-0.016 0.01,-0.011 0.016,-0.025 0.016,-0.038 0,-0.014 -0.006,-0.028 -0.016,-0.039 -0.011,-0.01 -0.025,-0.016 -0.038,-0.016 -0.014,0 -0.028,0.006 -0.039,0.016 -0.004,0.005 -0.011,0.005 -0.015,0l-0.059 -0.059zm-0.174 0.075c0.006,0.006 0.009,0.014 0.009,0.023 0,0.008 -0.003,0.016 -0.009,0.022l0 0c-0.007,0.007 -0.015,0.01 -0.023,0.01 -0.009,0 -0.017,-0.003 -0.023,-0.01 -0.007,-0.006 -0.01,-0.014 -0.01,-0.022 0,-0.009 0.003,-0.017 0.01,-0.023l0 0c0.006,-0.007 0.014,-0.01 0.023,-0.01 0.008,0 0.016,0.003 0.023,0.01zm-0.012 0.023c0,-0.003 -0.002,-0.006 -0.004,-0.008 -0.002,-0.002 -0.005,-0.003 -0.007,-0.003 -0.003,0 -0.006,0.001 -0.008,0.003 -0.002,0.002 -0.003,0.005 -0.003,0.008 0,0.002 0.001,0.005 0.003,0.007 0.002,0.002 0.005,0.003 0.008,0.003 0.002,0 0.005,-0.001 0.007,-0.003l0 0c0.002,-0.002 0.004,-0.005 0.004,-0.007zm-0.011 0.054c0.014,0 0.027,-0.006 0.038,-0.016l0.036 -0.036 0 0c0.072,-0.073 0.154,-0.163 0.213,-0.24 0.028,-0.038 0.051,-0.072 0.064,-0.099l-0.298 0.298c-0.004,0.005 -0.011,0.005 -0.015,0 -0.011,-0.01 -0.024,-0.016 -0.038,-0.016 -0.014,0 -0.028,0.006 -0.039,0.016 -0.01,0.011 -0.015,0.025 -0.015,0.039 0,0.013 0.005,0.027 0.015,0.038 0.011,0.01 0.025,0.016 0.039,0.016z"/></g><text x="0" y="15.461" fill="#000000" font-size="5px" font-weight="bold" font-family="'Helvetica Neue', Helvetica, Arial-Unicode, Arial, Sans-serif">Created by Deemak Daksina</text><text x="0" y="20.461" fill="#000000" font-size="5px" font-weight="bold" font-family="'Helvetica Neue', Helvetica, Arial-Unicode, Arial, Sans-serif">from the Noun Project</text></svg>